<svg xmlns="http://www.w3.org/2000/svg" viewBox="0 0 64 64" width="64" height="64">
  <circle cx="32" cy="32" r="31" fill="#f4ecdd"/>
  <path d="M33 16c4-8 12-10 18-8-2 7-8 11-16 10" fill="#3f6b3a"/>
  <path d="M31 17c-3-6-9-8-14-6 2 5 7 8 13 8" fill="#5f8a4a"/>
  <path d="M14 38c0-12 10-20 20-20 9 0 16 6 16 15 0 12-11 21-22 21-8 0-14-6-14-16z" fill="#8a3b4f"/>
  <path d="M22 34c3-4 7-6 11-6" stroke="#c46a82" stroke-width="2.5" fill="none" stroke-linecap="round"/>
  <g fill="#5e2232"><circle cx="38" cy="38" r="1.6"/><circle cx="27" cy="45" r="1.6"/><circle cx="41" cy="46" r="1.3"/></g>
</svg>
